<mxfile host="app.diagrams.net" modified="2024-03-08T21:43:13.813Z" agent="Mozilla/5.0 (Windows NT 10.0; Win64; x64) AppleWebKit/537.36 (KHTML, like Gecko) Chrome/122.0.0.0 Safari/537.36" etag="LpEzJRkTSqd7orpMSpfS" version="24.0.2" type="github">
  <diagram name="Page-1" id="Lno7UP2FW8wkdZdPE6gf">
    <mxGraphModel dx="1434" dy="746" grid="1" gridSize="10" guides="1" tooltips="1" connect="1" arrows="1" fold="1" page="1" pageScale="1" pageWidth="850" pageHeight="1100" math="0" shadow="0">
      <root>
        <mxCell id="0" />
        <mxCell id="1" parent="0" />
        <mxCell id="wygEJWOVsILrQv9duxri-4" value="&lt;font style=&quot;font-size: 44px;&quot;&gt;Header&lt;/font&gt;" style="rounded=0;whiteSpace=wrap;html=1;labelPosition=center;verticalLabelPosition=middle;align=center;verticalAlign=top;" vertex="1" parent="1">
          <mxGeometry x="10" y="10" width="830" height="230" as="geometry" />
        </mxCell>
        <mxCell id="y5jHthhZl2fXWVsTukY_-31" value="&lt;font style=&quot;font-size: 39px;&quot;&gt;Home&lt;/font&gt;" style="whiteSpace=wrap;html=1;aspect=fixed;verticalAlign=top;" parent="1" vertex="1">
          <mxGeometry x="10" y="250" width="840" height="840" as="geometry" />
        </mxCell>
        <mxCell id="wygEJWOVsILrQv9duxri-9" value="&lt;p style=&quot;line-height: 92%;&quot;&gt;&lt;font style=&quot;font-size: 34px;&quot;&gt;Tabs&lt;/font&gt;&lt;/p&gt;" style="rounded=0;whiteSpace=wrap;html=1;labelPosition=center;verticalLabelPosition=middle;align=center;verticalAlign=top;" vertex="1" parent="1">
          <mxGeometry x="20" y="90" width="420" height="140" as="geometry" />
        </mxCell>
        <mxCell id="y5jHthhZl2fXWVsTukY_-13" value="&lt;font style=&quot;font-size: 18px;&quot;&gt;Messages&lt;/font&gt;" style="rounded=0;whiteSpace=wrap;html=1;" parent="1" vertex="1">
          <mxGeometry x="290" y="160" width="120" height="60" as="geometry" />
        </mxCell>
        <mxCell id="y5jHthhZl2fXWVsTukY_-9" value="&lt;font style=&quot;font-size: 18px;&quot;&gt;Home&lt;/font&gt;" style="rounded=0;whiteSpace=wrap;html=1;" parent="1" vertex="1">
          <mxGeometry x="30" y="160" width="120" height="60" as="geometry" />
        </mxCell>
        <mxCell id="wygEJWOVsILrQv9duxri-10" value="&lt;font style=&quot;font-size: 28px;&quot;&gt;Features&lt;/font&gt;" style="rounded=0;whiteSpace=wrap;html=1;verticalAlign=top;" vertex="1" parent="1">
          <mxGeometry x="450" y="90" width="380" height="140" as="geometry" />
        </mxCell>
        <mxCell id="y5jHthhZl2fXWVsTukY_-29" value="&lt;font style=&quot;font-size: 18px;&quot;&gt;Tweet&lt;/font&gt;" style="whiteSpace=wrap;html=1;verticalAlign=middle;strokeWidth=2;labelBackgroundColor=default;spacingTop=8;" parent="1" vertex="1">
          <mxGeometry x="650" y="160" width="170" height="60" as="geometry" />
        </mxCell>
        <mxCell id="y5jHthhZl2fXWVsTukY_-27" value="&lt;font style=&quot;font-size: 18px;&quot;&gt;Search&lt;/font&gt;" style="whiteSpace=wrap;html=1;verticalAlign=middle;strokeWidth=2;labelBackgroundColor=none;spacingTop=8;" parent="1" vertex="1">
          <mxGeometry x="460" y="160" width="180" height="60" as="geometry" />
        </mxCell>
        <mxCell id="y5jHthhZl2fXWVsTukY_-11" value="&lt;font style=&quot;font-size: 18px;&quot;&gt;Notifications&lt;/font&gt;" style="rounded=0;whiteSpace=wrap;html=1;" parent="1" vertex="1">
          <mxGeometry x="160" y="160" width="120" height="60" as="geometry" />
        </mxCell>
        <mxCell id="wygEJWOVsILrQv9duxri-12" value="&lt;font style=&quot;font-size: 20px;&quot;&gt;Profile&lt;/font&gt;" style="rounded=0;whiteSpace=wrap;html=1;verticalAlign=top;" vertex="1" parent="1">
          <mxGeometry x="20" y="310" width="260" height="210" as="geometry" />
        </mxCell>
      </root>
    </mxGraphModel>
  </diagram>
</mxfile>
